<?xml version="1.0" encoding="utf-8"?>
<!-- Generator: Adobe Illustrator 16.0.0, SVG Export Plug-In . SVG Version: 6.00 Build 0)  -->
<!DOCTYPE svg PUBLIC "-//W3C//DTD SVG 1.1//EN" "http://www.w3.org/Graphics/SVG/1.1/DTD/svg11.dtd">
<svg version="1.1" id="Layer_1" xmlns="http://www.w3.org/2000/svg" xmlns:xlink="http://www.w3.org/1999/xlink" x="0px" y="0px"
	 width="479.3px" height="56.7px" viewBox="0 0 479.3 56.7" style="enable-background:new 0 0 479.3 56.7;" xml:space="preserve">
<g>
	<path style="fill:#FFFFFF;" d="M39.8,35.1c-4.2,9.9-6.3,16.4-8.2,21c-0.7,0.4-1.6,0.7-2.9,0.7c-1,0-1.7-0.2-2.2-0.7
		c-0.9-2.2-2.3-6.6-3.4-9.3L9.8,13.4c-3.1-7.9-3.5-8-6.1-8.7L0.4,3.9C-0.3,3,0,1.5,0.7,1.1c4.2,0.1,6.9,0.2,11.2,0.2
		c3.8,0,7.3-0.1,12.3-0.2c0.7,0.5,0.6,2,0.1,2.8l-2.5,0.5c-1.5,0.3-2,0.8-2,1.6c0,0.7,1.3,4.1,3.3,9l7.2,18.4c1.1,3,2.1,5.5,2.7,6.9
		c0.7-1.4,2-4.2,3-6.6l3.1-7.7c2-5.2,5.6-14.3,6.6-17.1c0.6-1.6,0.8-2.5,0.8-3c0-0.6-0.7-0.9-2.6-1.4l-2.6-0.6
		c-0.7-0.7-0.7-2.4,0.3-2.8c3.9,0.2,7,0.2,10.1,0.2c2.8,0,5.2-0.1,7.6-0.2c0.7,0.3,0.7,2.3,0.2,2.8l-2.1,0.4c-2.3,0.4-3.7,1-4.8,2.7
		c-1.8,2.7-3.9,7.3-6.6,13.9L39.8,35.1z"/>
	<path style="fill:#FFFFFF;" d="M66,36.9c-2,0-2.2,0.1-2.7,1.6L60.1,48c-0.5,1.6-0.6,2.3-0.6,3c0,0.5,1.1,1,3.4,1.4l2.5,0.4
		c0.5,0.6,0.7,2.5-0.2,2.9c-2.9-0.2-5.8-0.2-9.3-0.2c-2.8,0-4.7,0.2-8.4,0.2c-0.9-0.5-0.8-2.2-0.2-2.9l2.2-0.2c2-0.2,3.6-0.9,5-4.1
		c1.4-3.3,3-7.2,5.2-13.1l7.5-20c1.9-5.2,3.3-8,3-10.4C74,4,77,0,77.2,0c1.1,0,1.6,0.4,1.9,1.6c0.7,2.4,1.6,5.4,3.7,11.2L93.9,45
		c1.7,4.9,2.5,6.8,5.5,7.3l3.1,0.5c0.5,0.4,0.7,2.4-0.1,2.9c-3.9-0.2-8.4-0.2-12.6-0.2c-4.1,0-7.3,0.1-11.1,0.2
		c-0.9-0.5-1.1-2.2-0.2-2.9l2.6-0.4c1.9-0.3,2.2-0.9,2.2-1.4c0-0.6-0.6-2.5-1.6-5.6l-2.2-7.1c-0.4-1.3-1.1-1.5-3.9-1.5H66z
		 M75.3,32.5c1.9,0,2.3-0.2,1.6-2.4l-2.1-6.6c-1.1-3.5-2.6-8-3.4-9.7c-0.7,1.9-2.3,6.3-3.5,10.1l-2,6.1c-0.7,2.2-0.3,2.5,1.7,2.5
		H75.3z"/>
	<path style="fill:#FFFFFF;" d="M121.4,41.8c0,3.9,0.3,6.5,1.4,7.8c1.1,1.4,2.5,2,8.5,2c7.5,0,9.8-0.2,14.6-9.8
		c0.7-0.8,2.5-0.5,3.1,0.5c-0.4,4.3-2.4,11.1-3.5,13.3c-4.3-0.2-12.2-0.2-18.9-0.2h-11c-3.8,0-7.9,0.1-13,0.2
		c-0.7-0.5-0.9-2.4-0.2-2.9l3.1-0.4c3.7-0.5,4.2-1.1,4.2-8.8V13.1c0-7.6-0.5-8.4-4.2-8.9l-2.4-0.3c-0.8-0.5-0.8-2.4,0.2-2.9
		c4.3,0.2,8.4,0.2,12.3,0.2c3.9,0,8-0.1,12.1-0.2c0.7,0.5,0.7,2.4,0,2.9l-2.1,0.3c-3.7,0.6-4.2,1.2-4.2,8.9V41.8z"/>
	<path style="fill:#FFFFFF;" d="M169.4,22.6c0,2.3,0.1,2.5,2.3,2.5h5.7c4.3,0,5.2-0.6,6.1-4.5l0.4-2c0.6-0.7,2.6-0.7,3,0.1
		c-0.2,2.6-0.2,5.6-0.2,8.7c0,3.1,0.1,6.1,0.2,8.7c-0.4,0.7-2.5,0.8-3,0.1l-0.4-2c-0.8-3.9-1.8-4.6-6.1-4.6h-5.7
		c-2.2,0-2.3,0.1-2.3,2.5v9.8c0,3.8,0.3,6.4,1.3,7.8c1.1,1.5,2.6,2.1,8.6,2.1c7.1,0,9.9-0.2,14.4-9.5c0.7-0.9,2.7-0.6,3,0.4
		c-0.3,4.3-2.3,10.9-3.4,13.1c-4.3-0.2-12.2-0.2-18.9-0.2h-10.7c-3.9,0-8,0.1-14.1,0.2c-0.7-0.5-0.7-2.5,0-2.9l3.9-0.6
		c3.7-0.6,4.2-1.1,4.2-8.6V13c0-7.5-0.5-8-4.2-8.7l-2-0.4c-0.7-0.5-0.7-2.4,0.2-2.9c3.9,0.2,7.9,0.2,11.8,0.2h17.4
		c5.2,0,9.9-0.1,11-0.2c0.1,1.3,0.7,7.2,1.1,12.7c-0.3,0.9-2.2,1.1-3,0.3c-0.9-2.9-2-5.3-3.1-6.5c-1.6-1.6-4-2.5-8-2.5h-6.6
		c-2.7,0-2.7,0.2-2.7,3.2V22.6z"/>
	<path style="fill:#FFFFFF;" d="M205.8,13.1c0-7.6-0.5-8.1-4.2-8.9l-2-0.4c-0.7-0.5-0.7-2.3,0.2-2.8c3.9,0.2,8,0.2,12,0.2
		c4,0,8-0.1,12-0.2c0.7,0.5,0.7,2.3,0,2.8l-2,0.3c-3.7,0.7-4.2,1.3-4.2,8.9v18.9c0,9.6,1.1,20.2,13.5,20.2
		c10.5,0,13.7-9.2,13.7-20.4v-9.9c0-6.6-0.3-12.9-1.2-15c-0.7-1.7-2.5-2.2-4.8-2.6l-2.2-0.4c-0.7-0.7-0.5-2.3,0-2.8
		c4.4,0.2,7.6,0.2,11,0.2c3,0,6.1-0.1,9.2-0.2c0.5,0.5,0.7,2.1,0,2.8l-1.5,0.3c-2.1,0.5-3.7,1-4.4,2.7c-0.9,2.1-1.2,8.4-1.2,15v9.2
		c0,7.7-0.7,14.8-5.2,19.8c-3.6,3.9-9.6,5.9-16.2,5.9c-6.2,0-11.8-1-16.2-4.6c-4.3-3.5-6.1-9.6-6.1-18.5V13.1z"/>
	<path style="fill:#FFFFFF;" d="M266.9,14.6c0-8.2-0.2-9.1-3.6-9.6l-2.2-0.3c-0.8-0.4-0.8-2.5,0.2-2.9c6.1-0.4,12.5-0.7,20.3-0.7
		c7,0,13,1.1,16.1,3c4.8,2.8,7.2,6.9,7.2,12.1c0,7.3-4.9,10.4-8.7,12.3c-0.8,0.4-0.8,0.9-0.4,1.8c5.4,11,8.8,17.1,12.7,20.5
		c2.1,1.7,4.3,2.2,5.5,2.3c0.7,0.4,0.7,1.6,0.3,2.1c-1.3,0.6-3.9,0.7-6.5,0.7c-7.5,0-12.3-2.7-15.9-8.6c-2.6-4.3-4.5-8.4-6.4-12.7
		c-1-2.2-2.3-2.9-4.3-2.9c-2.9,0-3,0.2-3,1.8v10.1c0,7.5,0.5,8.1,4.2,8.8l2.2,0.4c0.6,0.4,0.6,2.4,0,2.9c-4.3-0.2-8.1-0.2-12.1-0.2
		c-4.1,0-7.7,0.1-12,0.2c-0.7-0.5-0.7-2.5,0-2.9l2.2-0.4c3.7-0.7,4.2-1.2,4.2-8.8V14.6z M278.2,25c0,2.9,0.2,3.1,5.1,3.1
		c3,0,4.7-0.7,6.2-2.3c1.4-1.4,3-4,3-8.9c0-7.4-4.3-12.1-10.7-12.1c-3.4,0-3.5,0.2-3.5,4.2V25z"/>
	<path style="fill:#FFFFFF;" d="M333.1,22.6c0,2.3,0.1,2.5,2.3,2.5h5.7c4.3,0,5.2-0.6,6.1-4.5l0.4-2c0.6-0.7,2.6-0.7,3,0.1
		c-0.2,2.6-0.2,5.6-0.2,8.7c0,3.1,0.1,6.1,0.2,8.7c-0.4,0.7-2.5,0.8-3,0.1l-0.4-2c-0.8-3.9-1.8-4.6-6.1-4.6h-5.7
		c-2.2,0-2.3,0.1-2.3,2.5v9.8c0,3.8,0.3,6.4,1.3,7.8c1.1,1.5,2.6,2.1,8.6,2.1c7.1,0,9.9-0.2,14.4-9.5c0.7-0.9,2.7-0.6,3,0.4
		c-0.3,4.3-2.3,10.9-3.4,13.1c-4.3-0.2-12.2-0.2-18.9-0.2h-10.7c-3.9,0-8,0.1-14.1,0.2c-0.7-0.5-0.7-2.5,0-2.9l3.9-0.6
		c3.7-0.6,4.2-1.1,4.2-8.6V13c0-7.5-0.5-8-4.2-8.7l-2-0.4c-0.7-0.5-0.7-2.4,0.2-2.9c3.9,0.2,7.9,0.2,11.8,0.2h17.4
		c5.2,0,9.9-0.1,11-0.2c0.1,1.3,0.7,7.2,1.1,12.7c-0.3,0.9-2.2,1.1-3,0.3c-0.9-2.9-2-5.3-3.1-6.5c-1.6-1.6-4-2.5-8-2.5h-6.6
		c-2.7,0-2.7,0.2-2.7,3.2V22.6z"/>
	<path style="fill:#FFFFFF;" d="M369.6,13.1c0-7.6-0.5-8.1-4.2-8.9l-2-0.4c-0.7-0.5-0.7-2.3,0.2-2.8c3.9,0.2,8,0.2,12,0.2
		c4,0,8-0.1,12-0.2c0.7,0.5,0.7,2.3,0,2.8l-2,0.3c-3.7,0.7-4.2,1.3-4.2,8.9v18.9c0,9.6,1.1,20.2,13.5,20.2
		c10.5,0,13.7-9.2,13.7-20.4v-9.9c0-6.6-0.3-12.9-1.2-15c-0.7-1.7-2.5-2.2-4.8-2.6l-2.2-0.4c-0.7-0.7-0.5-2.3,0-2.8
		c4.4,0.2,7.6,0.2,11,0.2c3,0,6.1-0.1,9.2-0.2c0.5,0.5,0.7,2.1,0,2.8L419,4.2c-2.1,0.5-3.7,1-4.4,2.7c-0.9,2.1-1.2,8.4-1.2,15v9.2
		c0,7.7-0.7,14.8-5.2,19.8c-3.6,3.9-9.6,5.9-16.2,5.9c-6.2,0-11.8-1-16.2-4.6c-4.3-3.5-6.1-9.6-6.1-18.5V13.1z"/>
	<path style="fill:#FFFFFF;" d="M422.2,52.7c4.9-0.7,6.8-2.6,9.5-6.3c2.4-3.1,6.8-9.5,10.3-14.8c0.7-1.1,1.1-2,1.1-2.5
		c0-0.3-0.4-1.4-1.5-2.9c-2.7-4-7.9-12.1-11.7-17.6c-1.9-2.7-3.6-3.8-7.3-4.4l-1.4-0.2c-0.7-0.7-0.7-2.4,0.1-2.9
		c2.6,0.2,7.8,0.2,12.8,0.2c6.6,0,9.9-0.1,12.5-0.2c0.9,0.4,0.9,2.2,0.3,2.9l-1.8,0.3c-1.3,0.2-2.8,0.7-2.8,1.2
		c0,0.7,0.3,1.5,1.3,3.2c2.2,3.9,5.2,8.4,7.7,12.1c3-4.6,5.7-8.6,8.3-13c0.9-1.5,0.9-2,0.9-2.5c0-0.2-0.6-0.7-1.6-0.8l-3.3-0.6
		c-0.7-0.6-0.7-2.5,0.2-2.9c2.5,0.2,5.2,0.2,9,0.2c3.9,0,7.3-0.1,9.9-0.2c0.8,0.4,0.9,2.1,0.3,2.9l-3.4,0.5c-1.7,0.2-3.2,0.6-4.7,2
		c-3.9,4-7.5,9.4-11.4,14.7c-0.8,1.1-1.6,2.4-1.6,2.8s0.3,1.3,1.1,2.5c6.1,9.5,10.2,15.7,13.1,20.1c2.9,4.3,4.9,5.5,8,5.9l2.5,0.3
		c0.6,0.6,0.6,2.3-0.2,2.9c-3.6-0.2-6.1-0.2-12.8-0.2c-5.7,0-9.3,0.1-13.8,0.2c-0.7-0.3-1.1-2.5-0.2-2.9l2.2-0.2c2-0.2,3-0.7,3-1.1
		c0-0.7-0.3-1.4-2.4-4.8c-1.2-2.2-7.5-11.8-8.7-13.4c-3.2,4.7-7.1,10.9-9.8,16.1c-0.6,1.1-0.7,1.7-0.7,2.2c0,0.5,0.9,0.9,2.6,1.1
		l2.1,0.2c0.7,0.6,0.7,2.5-0.2,2.9c-3.6-0.2-7.3-0.2-10.7-0.2c-2.7,0-6.1,0.1-8.6,0.2c-0.8-0.4-1.1-2.2-0.3-2.7L422.2,52.7z"/>
</g>
</svg>
